HIERARCHY
ROOT Hips
{
    OFFSET 0.000000 0.000000 0.000000
    CHANNELS 6 Xposition Yposition Zposition Zrotation Yrotation Xrotation
    JOINT Chest
    {
        OFFSET 0.000000 1.634758 -0.000000
        CHANNELS 3 Zrotation Yrotation Xrotation
        JOINT Chest2
        {
            OFFSET 0.000000 2.197341 0.000000
            CHANNELS 3 Zrotation Yrotation Xrotation
            JOINT Neck
            {
                OFFSET 0.000000 0.961544 0.000000
                CHANNELS 3 Zrotation Yrotation Xrotation
                JOINT Head
                {
                    OFFSET 0.000000 0.632542 -0.032565
                    CHANNELS 3 Zrotation Yrotation Xrotation
                    End Site
                    {
                        OFFSET -0.000001 0.439502 2.922845
                    }
                }
            }
            JOINT LeftCollar
            {
                OFFSET 0.167536 0.778237 -0.168280
                CHANNELS 3 Zrotation Yrotation Xrotation
                JOINT LeftShoulder
                {
                    OFFSET 0.831514 -0.002900 0.006458
                    CHANNELS 3 Zrotation Yrotation Xrotation
                    JOINT LeftElbow
                    {
                        OFFSET 2.272872 -0.026639 0.059314
                        CHANNELS 3 Zrotation Yrotation Xrotation
                        JOINT LeftWrist
                        {
                            OFFSET 2.081982 -0.024402 0.054333
                            CHANNELS 3 Zrotation Yrotation Xrotation
                            JOINT LeftHandThumb1
                            {
                                OFFSET 0.218903 -0.128645 0.283837
                                CHANNELS 3 Zrotation Yrotation Xrotation
                                JOINT LeftHandThumb2
                                {
                                    OFFSET 0.137157 -0.025101 0.077902
                                    CHANNELS 3 Zrotation Yrotation Xrotation
                                    JOINT LeftHandThumb3
                                    {
                                        OFFSET 0.165861 -0.067014 0.039226
                                        CHANNELS 3 Zrotation Yrotation Xrotation
                                        End Site
                                        {
                                            OFFSET 0.241157 -0.045065 0.107930
                                        }
                                    }
                                }
                            }
                            JOINT LeftHandFore1
                            {
                                OFFSET 0.767340 -0.016076 0.196678
                                CHANNELS 3 Zrotation Yrotation Xrotation
                                JOINT LeftHandFore2
                                {
                                    OFFSET 0.212759 0.040592 0.008997
                                    CHANNELS 3 Zrotation Yrotation Xrotation
                                    JOINT LeftHandFore3
                                    {
                                        OFFSET 0.116677 0.055962 0.004211
                                        CHANNELS 3 Zrotation Yrotation Xrotation
                                        End Site
                                        {
                                            OFFSET 0.172232 0.087743 0.002052
                                        }
                                    }
                                }
                            }
                            JOINT LeftHandMiddle1
                            {
                                OFFSET 0.709887 -0.008320 0.018526
                                CHANNELS 3 Zrotation Yrotation Xrotation
                                JOINT LeftHandMiddle2
                                {
                                    OFFSET 0.236261 -0.064713 0.007515
                                    CHANNELS 3 Zrotation Yrotation Xrotation
                                    JOINT LeftHandMiddle3
                                    {
                                        OFFSET 0.141086 -0.038182 0.004484
                                        CHANNELS 3 Zrotation Yrotation Xrotation
                                        End Site
                                        {
                                            OFFSET 0.226238 -0.066220 0.007839
                                        }
                                    }
                                }
                            }
                            JOINT LeftHandRing1
                            {
                                OFFSET 0.743817 -0.005823 -0.153668
                                CHANNELS 3 Zrotation Yrotation Xrotation
                                JOINT LeftHandRing2
                                {
                                    OFFSET 0.298779 -0.188077 -0.009538
                                    CHANNELS 3 Zrotation Yrotation Xrotation
                                    JOINT LeftHandRing3
                                    {
                                        OFFSET 0.101347 -0.091282 0.001323
                                        CHANNELS 3 Zrotation Yrotation Xrotation
                                        End Site
                                        {
                                            OFFSET 0.084536 -0.085279 0.000990
                                        }
                                    }
                                }
                            }
                            JOINT LeftHandLittle1
                            {
                                OFFSET 0.689408 -0.053302 -0.308304
                                CHANNELS 3 Zrotation Yrotation Xrotation
                                JOINT LeftHandLittle2
                                {
                                    OFFSET 0.139067 -0.134855 -0.022994
                                    CHANNELS 3 Zrotation Yrotation Xrotation
                                    JOINT LeftHandLittle3
                                    {
                                        OFFSET 0.074986 -0.092929 -0.015415
                                        CHANNELS 3 Zrotation Yrotation Xrotation
                                        End Site
                                        {
                                            OFFSET 0.139993 -0.128281 -0.015315
                                        }
                                    }
                                }
                            }
                        }
                    }
                }
            }
            JOINT RightCollar
            {
                OFFSET -0.167536 0.778237 -0.168280
                CHANNELS 3 Zrotation Yrotation Xrotation
                JOINT RightShoulder
                {
                    OFFSET -0.831514 -0.002900 0.006457
                    CHANNELS 3 Zrotation Yrotation Xrotation
                    JOINT RightElbow
                    {
                        OFFSET -2.272872 -0.026639 0.059313
                        CHANNELS 3 Zrotation Yrotation Xrotation
                        JOINT RightWrist
                        {
                            OFFSET -2.081982 -0.024402 0.054331
                            CHANNELS 3 Zrotation Yrotation Xrotation
                            JOINT RightHandThumb1
                            {
                                OFFSET -0.218911 -0.128571 0.283837
                                CHANNELS 3 Zrotation Yrotation Xrotation
                                JOINT RightHandThumb2
                                {
                                    OFFSET -0.137157 -0.025101 0.077902
                                    CHANNELS 3 Zrotation Yrotation Xrotation
                                    JOINT RightHandThumb3
                                    {
                                        OFFSET -0.165861 -0.067014 0.039226
                                        CHANNELS 3 Zrotation Yrotation Xrotation
                                        End Site
                                        {
                                            OFFSET -0.229436 -0.065997 0.121819
                                        }
                                    }
                                }
                            }
                            JOINT RightHandFore1
                            {
                                OFFSET -0.767344 -0.015991 0.196679
                                CHANNELS 3 Zrotation Yrotation Xrotation
                                JOINT RightHandFore2
                                {
                                    OFFSET -0.212754 0.040641 0.008998
                                    CHANNELS 3 Zrotation Yrotation Xrotation
                                    JOINT RightHandFore3
                                    {
                                        OFFSET -0.116580 0.055970 0.006192
                                        CHANNELS 3 Zrotation Yrotation Xrotation
                                        End Site
                                        {
                                            OFFSET -0.171763 0.087667 0.013373
                                        }
                                    }
                                }
                            }
                            JOINT RightHandMiddle1
                            {
                                OFFSET -0.709887 -0.008302 0.018525
                                CHANNELS 3 Zrotation Yrotation Xrotation
                                JOINT RightHandMiddle2
                                {
                                    OFFSET -0.236251 -0.064735 0.007516
                                    CHANNELS 3 Zrotation Yrotation Xrotation
                                    JOINT RightHandMiddle3
                                    {
                                        OFFSET -0.141086 -0.038198 0.004484
                                        CHANNELS 3 Zrotation Yrotation Xrotation
                                        End Site
                                        {
                                            OFFSET -0.226274 -0.066228 0.006624
                                        }
                                    }
                                }
                            }
                            JOINT RightHandRing1
                            {
                                OFFSET -0.743819 -0.005785 -0.153669
                                CHANNELS 3 Zrotation Yrotation Xrotation
                                JOINT RightHandRing2
                                {
                                    OFFSET -0.298793 -0.188056 -0.009536
                                    CHANNELS 3 Zrotation Yrotation Xrotation
                                    JOINT RightHandRing3
                                    {
                                        OFFSET -0.101241 -0.090871 -0.009886
                                        CHANNELS 3 Zrotation Yrotation Xrotation
                                        End Site
                                        {
                                            OFFSET -0.084444 -0.084920 -0.008833
                                        }
                                    }
                                }
                            }
                            JOINT RightHandLittle1
                            {
                                OFFSET -0.689403 -0.053298 -0.308303
                                CHANNELS 3 Zrotation Yrotation Xrotation
                                JOINT RightHandLittle2
                                {
                                    OFFSET -0.139072 -0.134852 -0.022995
                                    CHANNELS 3 Zrotation Yrotation Xrotation
                                    JOINT RightHandLittle3
                                    {
                                        OFFSET -0.074986 -0.092924 -0.015415
                                        CHANNELS 3 Zrotation Yrotation Xrotation
                                        End Site
                                        {
                                            OFFSET -0.139699 -0.126346 -0.028457
                                        }
                                    }
                                }
                            }
                        }
                    }
                }
            }
        }
    }
    JOINT LeftHip
    {
        OFFSET 0.685143 0.673822 -0.044491
        CHANNELS 3 Zrotation Yrotation Xrotation
        JOINT LeftKnee
        {
            OFFSET 0.085364 -3.750208 0.017676
            CHANNELS 3 Zrotation Yrotation Xrotation
            JOINT LeftAnkle
            {
                OFFSET 0.094583 -4.155206 0.019585
                CHANNELS 3 Zrotation Yrotation Xrotation
                JOINT LeftToe
                {
                    OFFSET -0.000000 -0.395925 0.621478
                    CHANNELS 3 Zrotation Yrotation Xrotation
                    End Site
                    {
                        OFFSET -0.000000 -0.077878 0.321152
                    }
                }
            }
        }
    }
    JOINT RightHip
    {
        OFFSET -0.685143 0.673822 -0.044492
        CHANNELS 3 Zrotation Yrotation Xrotation
        JOINT RightKnee
        {
            OFFSET -0.085364 -3.750208 0.017677
            CHANNELS 3 Zrotation Yrotation Xrotation
            JOINT RightAnkle
            {
                OFFSET -0.094583 -4.155206 0.019585
                CHANNELS 3 Zrotation Yrotation Xrotation
                JOINT RightToe
                {
                    OFFSET -0.000000 -0.395925 0.621478
                    CHANNELS 3 Zrotation Yrotation Xrotation
                    End Site
                    {
                        OFFSET -0.000000 -0.077878 0.321152
                    }
                }
            }
        }
    }
}
MOTION
Frames: 5
Frame Time: 0.033333
2.642769 8.332316 -7.618818 -179.999969 -19.004826 -179.999985 -5.161895 -34.653782 -8.488349 -1.944372 5.311569 -3.898370 -3.678302 -8.943913 8.614644 0.356449 -6.890043 17.990404 -6.989298 -3.517379 0.666804 -17.611473 47.447514 27.639149 132.701645 -89.081360 -133.380859 48.253193 34.544426 9.664044 -0.000005 -0.000007 -0.000009 -0.000001 -0.000000 0.000003 0.000001 -0.000002 -0.000004 -36.668842 -1.069306 0.117246 -7.014539 -0.218568 0.207096 -2.688112 -0.043578 0.106552 -10.685338 13.089024 1.951003 3.954798 0.108016 -0.011609 -2.968203 -0.098818 0.044626 -20.620068 18.922800 9.494278 12.748343 -0.178524 0.196896 1.521552 0.016835 -0.008597 -11.581740 24.711052 27.623749 6.935071 -0.195886 -0.181018 -8.866154 0.618724 0.014860 -4.316327 0.743091 0.388974 28.637917 35.265911 -47.150906 -178.028244 59.073105 -178.890015 -59.369698 3.040152 -14.696183 0.000002 -0.000002 0.000004 0.000000 -0.000003 -0.000003 0.000007 0.000002 0.000003 -6.299837 -0.180801 0.050013 -0.571187 0.024718 -0.037709 -4.004015 0.130663 -0.195773 -2.290563 -0.065047 -0.037574 -14.880587 0.155505 -0.702019 0.000000 -0.000000 0.000002 -3.998431 -0.120556 -0.285200 -25.162449 1.602152 -0.303013 -2.851532 0.260578 0.082435 -59.920006 -5.561707 -6.151926 -16.590565 4.256613 0.996508 0.557652 -0.128689 -0.027874 -10.814521 -19.821474 -3.860800 0.152466 0.611879 27.981190 17.003366 34.567856 -4.745597 0.249167 1.815990 -5.816724 14.276319 -40.195938 -26.240540 -0.134335 -0.576519 26.235432 -7.304729 -5.064340 -11.641227 0.000000 -0.000002 -0.000004
2.674892 8.332787 -7.860831 -179.999969 -7.831638 -179.999985 -4.129560 -27.032125 -10.292057 -1.225704 4.171869 -4.371868 -2.830981 -6.943429 9.506534 0.271566 -5.259822 19.883614 -6.044901 -3.068486 0.451612 -13.816185 47.459896 27.103174 174.358810 -82.268555 -175.079300 56.568542 35.805191 15.126620 -0.000019 -0.000014 -0.000019 0.000001 -0.000000 0.000002 0.000001 0.000002 -0.000002 -35.770664 -1.044522 0.104563 -2.783025 -0.094629 0.091958 -0.700480 -0.010838 0.031802 -7.570972 15.072235 2.138755 7.545337 0.239207 -0.065997 -1.429093 -0.048143 0.021358 -18.549536 21.597363 10.675676 16.534285 -0.227481 0.215123 3.702842 0.050007 -0.047735 -7.602831 27.823742 31.590712 11.341317 -0.479436 -0.542142 -8.418040 0.587072 0.015715 -5.188390 1.442786 0.366280 17.481701 36.928844 -52.229336 -178.071060 57.895355 -178.940323 -72.035362 13.082767 -22.660482 0.000008 -0.000009 0.000004 0.000001 -0.000002 0.000003 -0.000000 0.000002 -0.000001 -6.299829 -0.180797 0.050008 -0.571185 0.024717 -0.037709 -4.004014 0.130670 -0.195772 -2.290563 -0.065042 -0.037577 -14.880583 0.155510 -0.702016 -0.000001 -0.000002 0.000001 -3.998421 -0.120561 -0.285189 -25.162449 1.602146 -0.303017 -2.851537 0.260573 0.082431 -59.920002 -5.561704 -6.151928 -16.590559 4.256616 0.996514 0.557656 -0.128687 -0.027871 -9.667246 -22.129091 -13.066983 0.331878 0.869135 41.795376 24.557768 37.947224 6.664434 0.368210 2.091337 -3.643071 13.915737 -35.665607 -22.593109 -0.124024 -0.555102 25.191219 -6.695231 -4.808127 -13.572177 0.000002 0.000010 0.000003
2.704930 8.333261 -8.091177 -179.999969 2.599098 -179.999954 -3.281143 -19.916164 -11.475535 -0.574529 3.082442 -4.502419 -2.450267 -4.997052 10.150167 0.191536 -3.714921 21.379980 -5.248679 -2.786810 0.286208 -11.486360 45.656929 25.194002 176.320190 -77.168747 -177.071045 63.633240 35.005928 16.012280 -0.000017 -0.000002 -0.000009 0.000000 0.000002 0.000000 0.000002 0.000002 -0.000002 -35.161213 -1.027524 0.095833 0.087788 -0.003360 0.012010 0.648207 0.012539 -0.019474 -5.448422 16.419676 2.271021 9.981569 0.331863 -0.101401 -0.384734 -0.013054 0.005734 -17.083040 23.399027 11.518835 19.103395 -0.260248 0.221936 5.182979 0.073694 -0.074811 -4.713998 29.845898 34.432037 14.330000 -0.670100 -0.815967 -8.113969 0.565511 0.016007 -5.998261 1.705055 0.310017 2.146189 39.849030 -59.914249 -178.166916 54.871319 -179.055634 -38.367947 11.664799 -13.780058 -0.000002 -0.000000 0.000012 0.000003 -0.000000 0.000000 0.000003 -0.000000 0.000003 -6.299825 -0.180794 0.050014 -0.571184 0.024717 -0.037706 -4.004016 0.130670 -0.195769 -2.290567 -0.065051 -0.037569 -14.880591 0.155503 -0.702017 0.000000 0.000007 0.000003 -3.998431 -0.120555 -0.285184 -25.162451 1.602141 -0.303018 -2.851538 0.260576 0.082436 -59.919994 -5.561697 -6.151922 -16.590572 4.256607 0.996513 0.557663 -0.128688 -0.027867 -4.469577 -0.933825 -24.745152 0.658340 1.132914 60.318569 35.124432 14.261956 5.750587 0.000001 -0.000001 0.000000 12.968892 -29.629576 -19.436647 -0.124845 -0.556849 25.275850 -5.311005 -6.647014 -15.554889 -0.000001 -0.000003 0.000002
2.731844 8.333739 -8.257959 -179.999969 12.305578 -179.999954 -2.704245 -13.377337 -11.821285 -0.162519 2.072959 -4.014328 -2.020438 -3.213981 10.312146 0.116305 -2.257796 21.899771 -4.521441 -2.297733 0.163087 -9.532231 45.090099 23.450922 177.172699 -71.948196 -177.954956 65.358643 30.097864 12.415082 -0.000020 -0.000019 -0.000007 -0.000005 0.000002 0.000003 0.000003 0.000005 -0.000002 -34.936676 -1.021248 0.092604 1.145338 0.031742 -0.017750 1.145065 0.021385 -0.038472 -4.664485 16.916414 2.320855 10.879096 0.366729 -0.114118 0.000022 0.000015 0.000012 -16.529560 24.059807 11.838796 20.049934 -0.272177 0.223320 5.728281 0.082663 -0.084891 -3.609468 30.570379 35.511784 15.430842 -0.739695 -0.922691 -8.001945 0.557554 0.016057 -6.119798 1.635614 0.209141 -11.086899 41.365852 -67.762177 -178.292603 49.804676 -179.214630 -11.249297 7.908738 -10.059603 0.000001 0.000005 0.000003 0.000003 -0.000003 0.000000 -0.000001 -0.000000 0.000002 -6.299821 -0.180794 0.050016 -0.571183 0.024722 -0.037713 -4.004013 0.130661 -0.195768 -2.290562 -0.065043 -0.037563 -14.880593 0.155513 -0.702020 0.000002 -0.000004 -0.000002 -3.998434 -0.120546 -0.285181 -25.162447 1.602145 -0.303015 -2.851538 0.260578 0.082434 -59.920002 -5.561700 -6.151932 -16.590565 4.256612 0.996511 0.557655 -0.128693 -0.027871 -1.623187 -0.933939 -32.513325 0.950260 1.255063 74.258499 35.123245 6.814999 11.282067 0.000000 0.000002 0.000002 12.221785 -23.561632 -16.930389 -0.124088 -0.555238 25.197721 -3.999834 -8.479857 -16.838774 -0.000004 -0.000019 0.000006
2.767128 8.334221 -8.424455 -179.999969 21.321144 -179.999954 -2.020805 -7.227319 -12.588663 0.323804 1.092849 -4.037156 -1.585706 -1.589900 10.901425 0.053924 -1.047101 23.170986 -4.075869 -1.525612 0.074271 -9.033147 45.789272 22.038185 177.611908 -67.096344 -178.423676 67.086761 25.318932 8.190457 -0.000020 -0.000013 -0.000006 -0.000003 0.000003 0.000004 0.000000 -0.000004 -0.000003 -34.936676 -1.021243 0.092602 1.145334 0.031740 -0.017753 1.145074 0.021384 -0.038468 -4.664485 16.916412 2.320856 10.879092 0.366727 -0.114116 0.000020 0.000015 0.000015 -16.529568 24.059799 11.838786 20.049934 -0.272181 0.223320 5.728280 0.082661 -0.084884 -3.609467 30.570387 35.511772 15.430842 -0.739698 -0.922686 -8.001935 0.557545 0.016057 -8.087728 5.426318 0.128432 -24.312828 38.807392 -65.217041 -176.692917 75.316483 -177.454880 11.745097 0.930586 -7.134944 0.000002 -0.000005 0.000012 0.000002 -0.000003 0.000002 0.000002 -0.000003 0.000002 -6.299827 -0.180801 0.050014 -0.571184 0.024723 -0.037713 -4.004021 0.130665 -0.195763 -2.290570 -0.065043 -0.037569 -14.880590 0.155512 -0.702015 0.000002 0.000004 -0.000005 -3.998438 -0.120555 -0.285191 -25.162447 1.602148 -0.303015 -2.851531 0.260577 0.082434 -59.920002 -5.561707 -6.151923 -16.590565 4.256615 0.996504 0.557659 -0.128688 -0.027869 1.006150 -1.070671 -35.161652 1.068201 1.282458 79.581161 32.690678 -2.305445 13.092926 0.000000 -0.000007 0.000002 11.571041 -19.030640 -14.724418 -0.124444 -0.555993 25.234455 -2.983633 -8.590332 -18.081556 -0.000003 -0.000010 0.000003
